<?xml version="1.0" encoding="UTF-8" standalone="no"?>
<svg
   xmlns:dc="http://purl.org/dc/elements/1.1/"
   xmlns:cc="http://creativecommons.org/ns#"
   xmlns:rdf="http://www.w3.org/1999/02/22-rdf-syntax-ns#"
   xmlns:svg="http://www.w3.org/2000/svg"
   xmlns="http://www.w3.org/2000/svg"
   xmlns:sodipodi="http://sodipodi.sourceforge.net/DTD/sodipodi-0.dtd"
   xmlns:inkscape="http://www.inkscape.org/namespaces/inkscape"
   data-v-423bf9ae=""
   viewBox="0 0 590 102"
   class="iconLeft"
   version="1.1"
   id="svg12"
   sodipodi:docname="logo.svg"
   inkscape:version="0.92.3 (2405546, 2018-03-11)">
  <metadata
     id="metadata18">
    <rdf:RDF>
      <cc:Work
         rdf:about="">
        <dc:format>image/svg+xml</dc:format>
        <dc:type
           rdf:resource="http://purl.org/dc/dcmitype/StillImage" />
      </cc:Work>
    </rdf:RDF>
  </metadata>
  <defs
     id="defs16" />
  <sodipodi:namedview
     pagecolor="#ffffff"
     bordercolor="#666666"
     borderopacity="1"
     objecttolerance="10"
     gridtolerance="10"
     guidetolerance="10"
     inkscape:pageopacity="0"
     inkscape:pageshadow="2"
     inkscape:window-width="1008"
     inkscape:window-height="644"
     id="namedview14"
     showgrid="false"
     inkscape:zoom="0.46949153"
     inkscape:cx="295"
     inkscape:cy="51"
     inkscape:window-x="363"
     inkscape:window-y="134"
     inkscape:window-maximized="0"
     inkscape:current-layer="svg12" />
  <!---->
  <!---->
  <!---->
  <g
     data-v-423bf9ae=""
     id="52e86124-64a8-4817-9aa6-dc760aff76e3"
     fill="#ffffff"
     transform="matrix(5.281689857069749,0,0,5.281689857069749,111.57395186998312,3.2517182628825267)">
    <path
       d="M7.66 3.88L6.34 3.88L6.34 8.46L2.38 8.46L2.38 3.88L1.05 3.88L1.05 14.55L2.38 14.55L2.38 9.67L6.34 9.67L6.34 14.55L7.66 14.55ZM10.99 6.24L9.70 6.24L9.70 14.55L10.99 14.55ZM11.00 3.35L9.69 3.35L9.69 4.70L11.00 4.70ZM12.18 6.24L14.57 14.55L16.20 14.55L18.59 6.24L17.15 6.24L15.39 13.09L13.65 6.24ZM23.98 12.22C23.95 13.17 23.56 13.61 22.43 13.61C21.22 13.61 20.80 13.03 20.80 11.63L20.80 10.71L25.26 10.71L25.26 9.17C25.26 7.04 24.37 6.08 22.41 6.08C20.48 6.08 19.53 7.08 19.53 9.24L19.53 11.54C19.53 13.82 20.44 14.71 22.44 14.71C24.36 14.71 25.14 13.87 25.19 12.22ZM22.43 7.20C23.65 7.20 24.02 7.87 24.02 9.23L24.02 9.69L20.80 9.69L20.80 9.30C20.80 7.80 21.22 7.20 22.43 7.20ZM33.64 3.88L32.33 3.88L32.33 8.46L28.36 8.46L28.36 3.88L27.03 3.88L27.03 14.55L28.36 14.55L28.36 9.67L32.33 9.67L32.33 14.55L33.64 14.55ZM40.01 14.55L41.16 14.55L41.16 8.83C41.16 6.79 40.17 6.08 38.47 6.08C36.58 6.08 35.67 6.90 35.67 8.79L36.85 8.79C36.85 7.53 37.41 7.14 38.42 7.14C39.47 7.14 39.93 7.67 39.93 8.90L39.93 9.93C39.54 9.87 38.96 9.83 38.58 9.83C36.36 9.83 35.42 10.64 35.42 12.38C35.42 13.94 36.36 14.71 37.86 14.71C38.74 14.71 39.52 14.43 39.97 13.78ZM39.93 11.80C39.93 13.03 39.09 13.65 38.14 13.65C37.18 13.65 36.71 13.19 36.71 12.26C36.71 11.28 37.21 10.81 38.63 10.81C38.96 10.81 39.55 10.85 39.93 10.91ZM47.32 11.84L47.32 11.96C47.32 12.98 46.93 13.58 45.71 13.58C44.48 13.58 44.09 12.95 44.09 11.51L44.09 9.24C44.09 7.76 44.53 7.22 45.74 7.22C46.91 7.22 47.29 7.77 47.29 8.78L47.29 8.90L48.54 8.90L48.54 8.76C48.54 6.99 47.71 6.08 45.74 6.08C43.78 6.08 42.80 6.97 42.80 9.25L42.80 11.51C42.80 13.80 43.72 14.71 45.70 14.71C47.73 14.71 48.57 13.76 48.57 11.94L48.57 11.84ZM56.21 6.24L54.66 6.24L52.30 9.51L51.51 9.51L51.51 3.74L50.22 3.74L50.22 14.55L51.51 14.55L51.51 10.65L52.30 10.65L55.02 14.55L56.63 14.55L53.37 10.02ZM62.01 14.55L63.15 14.55L63.15 8.83C63.15 6.79 62.16 6.08 60.47 6.08C58.58 6.08 57.67 6.90 57.67 8.79L58.84 8.79C58.84 7.53 59.40 7.14 60.41 7.14C61.46 7.14 61.92 7.67 61.92 8.90L61.92 9.93C61.53 9.87 60.96 9.83 60.58 9.83C58.35 9.83 57.41 10.64 57.41 12.38C57.41 13.94 58.35 14.71 59.85 14.71C60.73 14.71 61.52 14.43 61.96 13.78ZM61.92 11.80C61.92 13.03 61.08 13.65 60.13 13.65C59.18 13.65 58.70 13.19 58.70 12.26C58.70 11.28 59.21 10.81 60.62 10.81C60.96 10.81 61.54 10.85 61.92 10.91ZM67.44 13.54C66.56 13.54 66.19 13.22 66.19 12.00L66.19 7.66L68.10 7.66L68.10 6.52L66.21 6.52L66.21 4.58L64.89 4.58L64.89 11.96C64.89 13.83 65.44 14.71 67.16 14.71C67.54 14.71 67.93 14.66 68.10 14.62L68.10 13.47C67.91 13.51 67.68 13.54 67.44 13.54ZM71.01 3.74L69.72 3.74L69.72 14.55L71.01 14.55L71.01 8.89C71.01 7.77 71.65 7.21 72.62 7.21C73.82 7.21 74.19 7.81 74.19 9.17L74.19 14.55L75.47 14.55L75.47 9.06C75.47 7.11 74.82 6.08 72.88 6.08C72.06 6.08 71.41 6.31 71.01 6.76ZM78.44 9.28C78.44 7.67 78.85 7.21 80.07 7.21C81.27 7.21 81.68 7.67 81.68 9.28L81.68 11.51C81.68 13.12 81.27 13.58 80.07 13.58C78.85 13.58 78.44 13.12 78.44 11.51ZM80.07 6.08C78.06 6.08 77.15 6.93 77.15 9.27L77.15 11.52C77.15 13.86 78.06 14.71 80.07 14.71C82.07 14.71 82.98 13.86 82.98 11.52L82.98 9.27C82.98 6.93 82.07 6.08 80.07 6.08ZM84.74 6.24L84.74 14.55L86.03 14.55L86.03 8.89C86.03 7.77 86.67 7.21 87.64 7.21C88.84 7.21 89.21 7.81 89.21 9.17L89.21 14.55L90.50 14.55L90.50 9.06C90.50 7.11 89.84 6.08 87.91 6.08C87.02 6.08 86.34 6.36 85.93 6.87L85.86 6.24Z"
       id="path2" />
  </g>
  <!---->
  <g
     data-v-423bf9ae=""
     id="f2158198-0522-40bf-ab6d-682c8ec081ec"
     transform="matrix(1.064011,0,0,1.064011,-3.8390845,-2.081081)"
     style="fill:#e31337;stroke:none;fill-opacity:1">
    <switch
       id="switch9"
       style="fill:#e31337;fill-opacity:1">
      <g
         id="g7"
         style="fill:#e31337;fill-opacity:1">
        <path
           d="m 70.87,54.932 h -0.077 a 22.001,22.001 0 0 0 1.199,-7.174 C 71.992,35.612 62.148,25.766 50,25.766 c -12.147,0 -21.995,9.847 -21.995,21.992 0,2.514 0.427,4.924 1.203,7.174 h -0.081 l 0.176,0.284 a 21.988,21.988 0 0 0 4.07,6.933 c 3.092,5.521 6.769,12.747 6.935,16.17 0.061,1.208 0,4.174 0,4.174 h 19.379 c 0,0 -0.087,-2.355 0,-4.174 0.161,-3.42 3.834,-10.64 6.929,-16.159 a 21.992,21.992 0 0 0 4.079,-6.946 z M 40.412,97.881 a 1.233,1.233 0 0 1 -1.206,-0.985 1.233,1.233 0 0 1 0.961,-1.451 l 9.282,-1.896 -9.075,-0.285 a 1.23,1.23 0 1 1 -0.249,-2.426 l 9.094,-2.188 h -8.806 a 1.23,1.23 0 1 1 0,-2.46 h 19.182 c 0.624,0 1.149,0.466 1.225,1.082 a 1.24,1.24 0 0 1 -0.937,1.346 l -10.29,2.474 10.449,0.328 a 1.23,1.23 0 0 1 1.188,1.129 1.226,1.226 0 0 1 -0.98,1.309 l -19.592,4.003 c -0.083,0.014 -0.166,0.02 -0.246,0.02 z M 50,18.43 A 1.845,1.845 0 0 1 48.154,16.584 V 3.966 a 1.846,1.846 0 1 1 3.692,0 v 12.618 c 0,1.02 -0.825,1.846 -1.846,1.846 z m -22.043,9.132 a 1.85,1.85 0 0 1 -1.308,-0.541 l -8.921,-8.923 a 1.847,1.847 0 0 1 2.611,-2.611 l 8.921,8.924 c 0.722,0.72 0.722,1.89 0,2.61 a 1.83,1.83 0 0 1 -1.303,0.541 z M 18.825,49.607 6.208,49.604 a 1.846,1.846 0 1 1 0,-3.692 l 12.617,0.002 a 1.847,1.847 0 0 1 0,3.693 z m 0.208,30.966 A 1.847,1.847 0 0 1 17.728,77.42 l 8.922,-8.922 a 1.847,1.847 0 0 1 2.609,2.612 l -8.923,8.923 c -0.357,0.36 -0.83,0.54 -1.303,0.54 z M 80.967,80.57 a 1.83,1.83 0 0 1 -1.305,-0.539 l -8.925,-8.925 a 1.85,1.85 0 0 1 0,-2.612 1.85,1.85 0 0 1 2.613,0.004 l 8.923,8.922 a 1.846,1.846 0 0 1 -1.306,3.15 z M 93.793,49.604 h -12.62 a 1.847,1.847 0 0 1 0,-3.692 h 12.62 a 1.846,1.846 0 1 1 0,3.692 z M 72.045,27.56 c -0.474,0 -0.947,-0.18 -1.308,-0.539 a 1.85,1.85 0 0 1 0,-2.612 l 8.92,-8.923 a 1.8466097,1.8466097 0 1 1 2.613,2.61 l -8.92,8.923 a 1.843,1.843 0 0 1 -1.305,0.541 z"
           id="path5"
           inkscape:connector-curvature="0"
           style="fill:#e31337;fill-opacity:1" />
      </g>
    </switch>
  </g>
  <!---->
</svg>
