<?xml version="1.0" encoding="UTF-8" standalone="no"?>
<svg
   xmlns:dc="http://purl.org/dc/elements/1.1/"
   xmlns:cc="http://creativecommons.org/ns#"
   xmlns:rdf="http://www.w3.org/1999/02/22-rdf-syntax-ns#"
   xmlns:svg="http://www.w3.org/2000/svg"
   xmlns="http://www.w3.org/2000/svg"
   xmlns:sodipodi="http://sodipodi.sourceforge.net/DTD/sodipodi-0.dtd"
   xmlns:inkscape="http://www.inkscape.org/namespaces/inkscape"
   data-v-423bf9ae=""
   viewBox="0 0 57.19050940578421 60"
   class="icon"
   version="1.1"
   id="svg9"
   sodipodi:docname="logo_icon.svg"
   inkscape:version="0.92.3 (2405546, 2018-03-11)">
  <metadata
     id="metadata15">
    <rdf:RDF>
      <cc:Work
         rdf:about="">
        <dc:format>image/svg+xml</dc:format>
        <dc:type
           rdf:resource="http://purl.org/dc/dcmitype/StillImage" />
        <dc:title></dc:title>
      </cc:Work>
    </rdf:RDF>
  </metadata>
  <defs
     id="defs13" />
  <sodipodi:namedview
     pagecolor="#ffffff"
     bordercolor="#666666"
     borderopacity="1"
     objecttolerance="10"
     gridtolerance="10"
     guidetolerance="10"
     inkscape:pageopacity="0"
     inkscape:pageshadow="2"
     inkscape:window-width="1141"
     inkscape:window-height="785"
     id="namedview11"
     showgrid="false"
     inkscape:zoom="3.9333333"
     inkscape:cx="28.595255"
     inkscape:cy="30"
     inkscape:window-x="0"
     inkscape:window-y="0"
     inkscape:window-maximized="0"
     inkscape:current-layer="svg9" />
  <!---->
  <!---->
  <!---->
  <!---->
  <g
     data-v-423bf9ae=""
     id="7bd4cbb3-7288-460f-9f40-fdc84d065a42"
     transform="matrix(0.62655991,0,0,0.62655991,-2.7330554,-1.3283061)"
     style="fill:#e31337;stroke:none;fill-opacity:1">
    <switch
       id="switch6"
       style="fill:#e31337;fill-opacity:1">
      <g
         id="g4"
         style="fill:#e31337;fill-opacity:1">
        <path
           d="m 70.87,54.932 h -0.077 a 22.001,22.001 0 0 0 1.199,-7.174 C 71.992,35.612 62.148,25.766 50,25.766 c -12.147,0 -21.995,9.847 -21.995,21.992 0,2.514 0.427,4.924 1.203,7.174 h -0.081 l 0.176,0.284 a 21.988,21.988 0 0 0 4.07,6.933 c 3.092,5.521 6.769,12.747 6.935,16.17 0.061,1.208 0,4.174 0,4.174 h 19.379 c 0,0 -0.087,-2.355 0,-4.174 0.161,-3.42 3.834,-10.64 6.929,-16.159 a 21.992,21.992 0 0 0 4.079,-6.946 z M 40.412,97.881 a 1.233,1.233 0 0 1 -1.206,-0.985 1.233,1.233 0 0 1 0.961,-1.451 l 9.282,-1.896 -9.075,-0.285 a 1.23,1.23 0 1 1 -0.249,-2.426 l 9.094,-2.188 h -8.806 a 1.23,1.23 0 1 1 0,-2.46 h 19.182 c 0.624,0 1.149,0.466 1.225,1.082 a 1.24,1.24 0 0 1 -0.937,1.346 l -10.29,2.474 10.449,0.328 a 1.23,1.23 0 0 1 1.188,1.129 1.226,1.226 0 0 1 -0.98,1.309 l -19.592,4.003 c -0.083,0.014 -0.166,0.02 -0.246,0.02 z M 50,18.43 A 1.845,1.845 0 0 1 48.154,16.584 V 3.966 a 1.846,1.846 0 1 1 3.692,0 v 12.618 c 0,1.02 -0.825,1.846 -1.846,1.846 z m -22.043,9.132 a 1.85,1.85 0 0 1 -1.308,-0.541 l -8.921,-8.923 a 1.847,1.847 0 0 1 2.611,-2.611 l 8.921,8.924 c 0.722,0.72 0.722,1.89 0,2.61 a 1.83,1.83 0 0 1 -1.303,0.541 z M 18.825,49.607 6.208,49.604 a 1.846,1.846 0 1 1 0,-3.692 l 12.617,0.002 a 1.847,1.847 0 0 1 0,3.693 z m 0.208,30.966 A 1.847,1.847 0 0 1 17.728,77.42 l 8.922,-8.922 a 1.847,1.847 0 0 1 2.609,2.612 l -8.923,8.923 c -0.357,0.36 -0.83,0.54 -1.303,0.54 z M 80.967,80.57 a 1.83,1.83 0 0 1 -1.305,-0.539 l -8.925,-8.925 a 1.85,1.85 0 0 1 0,-2.612 1.85,1.85 0 0 1 2.613,0.004 l 8.923,8.922 a 1.846,1.846 0 0 1 -1.306,3.15 z M 93.793,49.604 h -12.62 a 1.847,1.847 0 0 1 0,-3.692 h 12.62 a 1.846,1.846 0 1 1 0,3.692 z M 72.045,27.56 c -0.474,0 -0.947,-0.18 -1.308,-0.539 a 1.85,1.85 0 0 1 0,-2.612 l 8.92,-8.923 a 1.8466097,1.8466097 0 1 1 2.613,2.61 l -8.92,8.923 a 1.843,1.843 0 0 1 -1.305,0.541 z"
           id="path2"
           inkscape:connector-curvature="0"
           style="fill:#e31337;fill-opacity:1" />
      </g>
    </switch>
  </g>
  <!---->
</svg>
